{"accessors" : [{"bufferView" : 0, "byteOffset" : 0, "componentType" : 5125, "count" : 170463, "type" : "SCALAR", "max" : [170462], "min" : [0]}, {"bufferView" : 1, "byteOffset" : 0, "componentType" : 5126, "count" : 170463, "type" : "VEC3", "max" : [0.6153519749641418, 0.9891449809074402, 0.29320400953292847], "min" : [-0.6173340082168579, -0.998416006565094, -0.2985459864139557], "name" : "POSITION"}, {"bufferView" : 1, "byteOffset" : 12, "componentType" : 5126, "count" : 170463, "type" : "VEC3", "max" : [0.9999983906745911, 0.9999939799308777, 1.0000011920928955], "min" : [-0.9999985098838806, -0.9999966621398926, -1.0000008344650269], "name" : "NORMAL"}, {"bufferView" : 1, "byteOffset" : 24, "componentType" : 5126, "count" : 170463, "type" : "VEC2", "max" : [0.9869970083236694, 0.9992709755897522], "min" : [0.00072900002123788, 0.0007290244102478027], "name" : "TEXCOORD_0"}], "asset" : {"generator" : "Aspose.3D 24.6.0", "version" : "2.0"}, "buffers" : [{"uri" : "buffer.bin", "byteLength" : 8900580}], "bufferViews" : [{"buffer" : 0, "byteOffset" : 0, "byteLength" : 681852, "target" : 34963}, {"buffer" : 0, "byteOffset" : 681856, "byteLength" : 5454816, "byteStride" : 32, "target" : 34962}, {"buffer" : 0, "byteOffset" : 6136676, "byteLength" : 2763902}], "images" : [{"mimeType" : "image/png", "bufferView" : 2}], "materials" : [{"name" : "Material.001", "pbrMetallicRoughness" : {"baseColorFactor" : [1, 1, 1, 1], "baseColorTexture" : {"index" : 0, "texCoord" : 0}, "metallicFactor" : 1, "roughnessFactor" : 1}, "emissiveFactor" : [0, 0, 0], "alphaMode" : "OPAQUE", "doubleSided" : false}], "meshes" : [{"primitives" : [{"attributes" : {"POSITION" : 1, "NORMAL" : 2, "TEXCOORD_0" : 3}, "indices" : 0, "material" : 0, "mode" : 4}], "name" : "Mesh1_Mesh1.001"}], "nodes" : [{"matrix" : [100, 0, 0, 0, 0, 99.99999999999972, -7.549790126404325E-06, 0, 0, 7.549790126404325E-06, 99.99999999999972, 0, 0, 0, 0, 1], "mesh" : 0, "name" : "Mesh1_Mesh1.017"}], "samplers" : [{"magFilter" : 9729, "minFilter" : 9729, "wrapS" : 10497, "wrapT" : 10497}], "scene" : 0, "scenes" : [{"nodes" : [0]}], "textures" : [{"sampler" : 0, "source" : 0, "name" : "base_color_texture"}]}